<svg width="11" height="11" viewBox="0 0 11 11" fill="none" xmlns="http://www.w3.org/2000/svg">
<path d="M9.83333 10.375H1.16667C0.867512 10.375 0.625 10.1325 0.625 9.83333V5.87917C0.625 5.72312 0.69234 5.57467 0.809708 5.47183L1.70833 4.6875V1.16667C1.70833 0.867512 1.95085 0.625 2.25 0.625H9.83333C10.1325 0.625 10.375 0.867512 10.375 1.16667V9.83333C10.375 10.1325 10.1325 10.375 9.83333 10.375ZM3.875 2.96988C4.00615 2.97003 4.13279 3.01776 4.23142 3.10421L6.93975 5.474C7.05675 5.57624 7.12422 5.72379 7.125 5.87917V9.29167H9.29167V1.70833H2.79167V3.73958L3.51804 3.10367C3.61689 3.01729 3.74373 2.96975 3.875 2.96988ZM3.33333 7.66667H4.41667V9.29167H6.04167V6.12671L3.875 4.23088L1.70833 6.12671V9.29167H3.33333V7.66667Z" fill="#F75532"/>
</svg>
