<svg width="21" height="20" viewBox="0 0 21 20" fill="none" xmlns="http://www.w3.org/2000/svg">
<path d="M0.00201416 10.002C0.0031777 14.9214 3.58042 19.11 8.43901 19.881V12.892H5.90201V10.002H8.44201V7.80198C8.32847 6.75952 8.68454 5.72058 9.41365 4.96692C10.1428 4.21325 11.1694 3.823 12.215 3.90198C12.9656 3.9141 13.7142 3.98095 14.455 4.10198V6.56098H13.191C12.7559 6.50399 12.3184 6.64771 12.0018 6.95165C11.6852 7.25559 11.5238 7.68687 11.563 8.12398V10.002H14.334L13.891 12.893H11.563V19.881C16.8175 19.0506 20.5021 14.2518 19.9475 8.96106C19.3929 3.67035 14.7933 -0.260088 9.48084 0.0171617C4.16838 0.294411 0.00285864 4.68229 0.00201416 10.002Z" fill="#B9C0C1"/>
</svg>
