<svg width="18" height="18" viewBox="0 0 18 18" fill="none" xmlns="http://www.w3.org/2000/svg">
<path d="M8.95599 7.35598V10.807H13.748C13.302 13 11.435 14.26 8.95599 14.26C6.06854 14.2202 3.74865 11.8682 3.74865 8.98048C3.74865 6.09275 6.06854 3.74072 8.95599 3.70098C10.1562 3.69954 11.3195 4.11605 12.246 4.87898L14.846 2.27898C11.8636 -0.342952 7.508 -0.680185 4.15755 1.45142C0.807102 3.58303 -0.732985 7.67119 0.37824 11.4836C1.48947 15.296 4.98494 17.9164 8.95599 17.914C13.423 17.914 17.485 14.665 17.485 8.97998C17.4781 8.43262 17.411 7.88768 17.285 7.35498L8.95599 7.35598Z" fill="#B9C0C1"/>
</svg>
