<svg width="20" height="20" viewBox="0 0 20 20" fill="none" xmlns="http://www.w3.org/2000/svg">
<path d="M19.9221 10.7252L13.0158 17.8935C12.1478 18.6569 11.0737 19.1418 9.93326 19.2891C6.3386 19.7564 3.70219 17.0933 3.70219 14.0255C3.70219 12.6118 3.32996 11.2234 2.62331 9.99927C0.185853 5.85386 0.327344 6.09689 0.30014 6.04348C0.616965 5.66445 1.13271 5.49165 1.62973 5.62819C1.90889 5.70481 2.06881 5.83225 2.25026 6.01371C3.61785 8.30432 4.98028 10.6826 4.97625 10.6826C5.32141 10.6826 5.57264 10.3552 5.4833 10.0218C3.56094 2.84767 3.65161 3.29355 3.66477 2.98389C3.67584 2.53085 3.94063 2.04839 4.37262 1.79635C4.55387 1.68991 4.75492 1.63434 4.77142 1.63418C5.26881 1.7553 5.68612 2.1376 5.82818 2.66678C6.01739 3.37307 7.52184 8.98831 7.72639 9.75178C7.72639 0.665472 7.71669 1.40367 7.74892 1.21365C7.788 0.99614 7.87943 0.791429 7.98434 0.644626C8.10893 0.462853 8.27645 0.330337 8.28052 0.330337C9.26266 -0.427137 10.6238 0.291141 10.6238 1.46999V10.0013C12.9735 1.80528 12.8475 2.23644 12.8693 2.17986C13.2124 1.20218 14.5222 0.85988 15.3011 1.69655C15.3507 1.75261 15.5233 1.01099 12.8774 11.0411V12.7526C12.8774 13.245 13.4269 13.7204 14.0617 13.4734C14.4881 13.3072 14.7271 12.9637 15.054 12.5852C16.525 10.8826 16.3492 11.0829 16.4514 10.9754C16.8797 10.5612 17.4383 10.2391 18.0786 10.091C18.3483 10.0293 18.7747 9.97468 19.0356 10.0146C19.3898 10.0691 19.6818 10.2832 19.8473 10.5699C19.893 10.6465 19.9202 10.7212 19.9221 10.7252Z" fill="#FFE4CC"/>
</svg>
